# xmcd
#
# Track frame offsets: 
#        150
#        14091
#        30523
#        41992
#        49254
#        61531
#        72099
#        89015
#        112736
#        124804
#        139394
#        149811
#        157297
#        171351
#        186049
#        203187
#
# Disc length: 2959 seconds
#
# Revision: 1
# Processed by: cddbd v1.5.2PL0 Copyright (c) Steve Scherf et al.
# Submitted via: ExactAudioCopyFreeDBPlugin 1.0
#
DISCID=f60b8d10
DTITLE=Keith and Rusty McNeil - Western Railroad Songs (with historical 
DTITLE=narration) [WEM Records]
DYEAR=1994
DGENRE=Trains
TTITLE0=PART ONE - THE BUILDERS:  900 Miles
TTITLE1=PART ONE - THE BUILDERS:  A Railroader for Me
TTITLE2=PART ONE - THE BUILDERS:  Railroad Traveler
TTITLE3=PART ONE - THE BUILDERS:  The Rock Island Line
TTITLE4=PART ONE - THE BUILDERS:  The Great Rock Island Route
TTITLE5=PART ONE - THE BUILDERS:  The Railroad Cars Are Coming
TTITLE6=PART ONE - THE BUILDERS:  Kansas Land
TTITLE7=PART ONE - THE BUILDERS:  Subsidy, A Goat Island Ballad
TTITLE8=PART ONE - THE BUILDERS:  John Chinaman, My Jo
TTITLE9=PART ONE - THE BUILDERS:  Twelve Hundred More
TTITLE10=PART ONE - THE BUILDERS:  Mick Upon the Railroad
TTITLE11=PART ONE - THE BUILDERS:  Tamping Ties
TTITLE12=PART ONE - THE BUILDERS:  Drill Ye Tarriers
TTITLE13=PART ONE - THE BUILDERS:  The Iron Horse
TTITLE14=PART TWO - THE GOLDEN SPIKE:  The Hell-Bound Train
TTITLE15=PART TWO - THE GOLDEN SPIKE:  Chinese Breakdown Gamblin' Blac
TTITLE15=kie
EXTD=
EXTT0=
EXTT1=
EXTT2=
EXTT3=
EXTT4=
EXTT5=
EXTT6=
EXTT7=
EXTT8=
EXTT9=
EXTT10=
EXTT11=
EXTT12=
EXTT13=
EXTT14=
EXTT15=
PLAYORDER=
